<svg xmlns="http://www.w3.org/2000/svg" width="749.086" height="750.173" viewBox="0 0 749.086 750.173"><g transform="translate(-518 -341)"><g transform="translate(518 717.37)" opacity="0.104"><g transform="translate(62.095)"><rect width="11.941" height="59.707" transform="translate(59.707 0) rotate(90)" fill="#d7ad7d"/><rect width="11.941" height="59.707" transform="translate(59.707 23.883) rotate(90)" fill="#d7ad7d"/><rect width="11.941" height="59.707" transform="translate(59.707 47.766) rotate(90)" fill="#d7ad7d"/></g><g transform="translate(62.096 62.095)"><rect width="11.941" height="59.707" transform="translate(59.707 59.707) rotate(180)" fill="#d7ad7d"/><rect width="11.941" height="59.707" transform="translate(35.824 59.707) rotate(180)" fill="#d7ad7d"/><rect width="11.941" height="59.707" transform="translate(11.941 59.707) rotate(180)" fill="#d7ad7d"/></g><g transform="translate(0 62.095)"><rect width="11.941" height="59.707" transform="translate(0 59.707) rotate(-90)" fill="#d7ad7d"/><rect width="11.941" height="59.707" transform="translate(0 35.824) rotate(-90)" fill="#d7ad7d"/><rect width="11.941" height="59.707" transform="translate(0 11.941) rotate(-90)" fill="#d7ad7d"/></g><g transform="translate(0)"><rect width="11.941" height="59.707" transform="translate(59.707 59.707) rotate(180)" fill="#d7ad7d"/><rect width="11.941" height="59.707" transform="translate(35.824 59.707) rotate(180)" fill="#d7ad7d"/><rect width="11.941" height="59.707" transform="translate(11.941 59.707) rotate(180)" fill="#d7ad7d"/></g></g><g transform="translate(643.457 717.37)" opacity="0.104"><g transform="translate(62.095)"><rect width="11.941" height="59.707" transform="translate(59.707 0) rotate(90)" fill="#d7ad7d"/><rect width="11.941" height="59.707" transform="translate(59.707 23.883) rotate(90)" fill="#d7ad7d"/><rect width="11.941" height="59.707" transform="translate(59.707 47.766) rotate(90)" fill="#d7ad7d"/></g><g transform="translate(62.096 62.095)"><rect width="11.941" height="59.707" transform="translate(59.707 59.707) rotate(180)" fill="#d7ad7d"/><rect width="11.941" height="59.707" transform="translate(35.824 59.707) rotate(180)" fill="#d7ad7d"/><rect width="11.941" height="59.707" transform="translate(11.941 59.707) rotate(180)" fill="#d7ad7d"/></g><g transform="translate(0 62.095)"><rect width="11.941" height="59.707" transform="translate(0 59.707) rotate(-90)" fill="#d7ad7d"/><rect width="11.941" height="59.707" transform="translate(0 35.824) rotate(-90)" fill="#d7ad7d"/><rect width="11.941" height="59.707" transform="translate(0 11.941) rotate(-90)" fill="#d7ad7d"/></g><g transform="translate(0)"><rect width="11.941" height="59.707" transform="translate(59.707 59.707) rotate(180)" fill="#d7ad7d"/><rect width="11.941" height="59.707" transform="translate(35.824 59.707) rotate(180)" fill="#d7ad7d"/><rect width="11.941" height="59.707" transform="translate(11.941 59.707) rotate(180)" fill="#d7ad7d"/></g></g><g transform="translate(768.914 717.37)" opacity="0.104"><g transform="translate(62.095)"><rect width="11.941" height="59.707" transform="translate(59.707 0) rotate(90)" fill="#d7ad7d"/><rect width="11.941" height="59.707" transform="translate(59.707 23.883) rotate(90)" fill="#d7ad7d"/><rect width="11.941" height="59.707" transform="translate(59.707 47.766) rotate(90)" fill="#d7ad7d"/></g><g transform="translate(62.096 62.095)"><rect width="11.941" height="59.707" transform="translate(59.707 59.707) rotate(180)" fill="#d7ad7d"/><rect width="11.941" height="59.707" transform="translate(35.824 59.707) rotate(180)" fill="#d7ad7d"/><rect width="11.941" height="59.707" transform="translate(11.941 59.707) rotate(180)" fill="#d7ad7d"/></g><g transform="translate(0 62.095)"><rect width="11.941" height="59.707" transform="translate(0 59.707) rotate(-90)" fill="#d7ad7d"/><rect width="11.941" height="59.707" transform="translate(0 35.824) rotate(-90)" fill="#d7ad7d"/><rect width="11.941" height="59.707" transform="translate(0 11.941) rotate(-90)" fill="#d7ad7d"/></g><g transform="translate(0)"><rect width="11.941" height="59.707" transform="translate(59.707 59.707) rotate(180)" fill="#d7ad7d"/><rect width="11.941" height="59.707" transform="translate(35.824 59.707) rotate(180)" fill="#d7ad7d"/><rect width="11.941" height="59.707" transform="translate(11.941 59.707) rotate(180)" fill="#d7ad7d"/></g></g><g transform="translate(894.37 717.37)" opacity="0.104"><g transform="translate(62.095)"><rect width="11.941" height="59.707" transform="translate(59.707 0) rotate(90)" fill="#d7ad7d"/><rect width="11.941" height="59.707" transform="translate(59.707 23.883) rotate(90)" fill="#d7ad7d"/><rect width="11.941" height="59.707" transform="translate(59.707 47.766) rotate(90)" fill="#d7ad7d"/></g><g transform="translate(62.096 62.095)"><rect width="11.941" height="59.707" transform="translate(59.707 59.707) rotate(180)" fill="#d7ad7d"/><rect width="11.941" height="59.707" transform="translate(35.824 59.707) rotate(180)" fill="#d7ad7d"/><rect width="11.941" height="59.707" transform="translate(11.941 59.707) rotate(180)" fill="#d7ad7d"/></g><g transform="translate(0 62.095)"><rect width="11.941" height="59.707" transform="translate(0 59.707) rotate(-90)" fill="#d7ad7d"/><rect width="11.941" height="59.707" transform="translate(0 35.824) rotate(-90)" fill="#d7ad7d"/><rect width="11.941" height="59.707" transform="translate(0 11.941) rotate(-90)" fill="#d7ad7d"/></g><g transform="translate(0)"><rect width="11.941" height="59.707" transform="translate(59.707 59.707) rotate(180)" fill="#d7ad7d"/><rect width="11.941" height="59.707" transform="translate(35.824 59.707) rotate(180)" fill="#d7ad7d"/><rect width="11.941" height="59.707" transform="translate(11.941 59.707) rotate(180)" fill="#d7ad7d"/></g></g><g transform="translate(1019.827 717.37)" opacity="0.104"><g transform="translate(62.095)"><rect width="11.941" height="59.707" transform="translate(59.707 0) rotate(90)" fill="#d7ad7d"/><rect width="11.941" height="59.707" transform="translate(59.707 23.883) rotate(90)" fill="#d7ad7d"/><rect width="11.941" height="59.707" transform="translate(59.707 47.766) rotate(90)" fill="#d7ad7d"/></g><g transform="translate(62.096 62.095)"><rect width="11.941" height="59.707" transform="translate(59.707 59.707) rotate(180)" fill="#d7ad7d"/><rect width="11.941" height="59.707" transform="translate(35.824 59.707) rotate(180)" fill="#d7ad7d"/><rect width="11.941" height="59.707" transform="translate(11.941 59.707) rotate(180)" fill="#d7ad7d"/></g><g transform="translate(0 62.095)"><rect width="11.941" height="59.707" transform="translate(0 59.707) rotate(-90)" fill="#d7ad7d"/><rect width="11.941" height="59.707" transform="translate(0 35.824) rotate(-90)" fill="#d7ad7d"/><rect width="11.941" height="59.707" transform="translate(0 11.941) rotate(-90)" fill="#d7ad7d"/></g><g transform="translate(0)"><rect width="11.941" height="59.707" transform="translate(59.707 59.707) rotate(180)" fill="#d7ad7d"/><rect width="11.941" height="59.707" transform="translate(35.824 59.707) rotate(180)" fill="#d7ad7d"/><rect width="11.941" height="59.707" transform="translate(11.941 59.707) rotate(180)" fill="#d7ad7d"/></g></g><g transform="translate(1145.284 717.37)" opacity="0.104"><g transform="translate(62.095)"><rect width="11.941" height="59.707" transform="translate(59.707 0) rotate(90)" fill="#d7ad7d"/><rect width="11.941" height="59.707" transform="translate(59.707 23.883) rotate(90)" fill="#d7ad7d"/><rect width="11.941" height="59.707" transform="translate(59.707 47.766) rotate(90)" fill="#d7ad7d"/></g><g transform="translate(62.096 62.095)"><rect width="11.941" height="59.707" transform="translate(59.707 59.707) rotate(180)" fill="#d7ad7d"/><rect width="11.941" height="59.707" transform="translate(35.824 59.707) rotate(180)" fill="#d7ad7d"/><rect width="11.941" height="59.707" transform="translate(11.941 59.707) rotate(180)" fill="#d7ad7d"/></g><g transform="translate(0 62.095)"><rect width="11.941" height="59.707" transform="translate(0 59.707) rotate(-90)" fill="#d7ad7d"/><rect width="11.941" height="59.707" transform="translate(0 35.824) rotate(-90)" fill="#d7ad7d"/><rect width="11.941" height="59.707" transform="translate(0 11.941) rotate(-90)" fill="#d7ad7d"/></g><g transform="translate(0)"><rect width="11.941" height="59.707" transform="translate(59.707 59.707) rotate(180)" fill="#d7ad7d"/><rect width="11.941" height="59.707" transform="translate(35.824 59.707) rotate(180)" fill="#d7ad7d"/><rect width="11.941" height="59.707" transform="translate(11.941 59.707) rotate(180)" fill="#d7ad7d"/></g></g><g transform="translate(518 591.913)" opacity="0.104"><g transform="translate(62.095)"><rect width="11.941" height="59.707" transform="translate(59.707 0) rotate(90)" fill="#d7ad7d"/><rect width="11.941" height="59.707" transform="translate(59.707 23.883) rotate(90)" fill="#d7ad7d"/><rect width="11.941" height="59.707" transform="translate(59.707 47.766) rotate(90)" fill="#d7ad7d"/></g><g transform="translate(62.096 62.095)"><rect width="11.941" height="59.707" transform="translate(59.707 59.707) rotate(180)" fill="#d7ad7d"/><rect width="11.941" height="59.707" transform="translate(35.824 59.707) rotate(180)" fill="#d7ad7d"/><rect width="11.941" height="59.707" transform="translate(11.941 59.707) rotate(180)" fill="#d7ad7d"/></g><g transform="translate(0 62.095)"><rect width="11.941" height="59.707" transform="translate(0 59.707) rotate(-90)" fill="#d7ad7d"/><rect width="11.941" height="59.707" transform="translate(0 35.824) rotate(-90)" fill="#d7ad7d"/><rect width="11.941" height="59.707" transform="translate(0 11.941) rotate(-90)" fill="#d7ad7d"/></g><g transform="translate(0)"><rect width="11.941" height="59.707" transform="translate(59.707 59.707) rotate(180)" fill="#d7ad7d"/><rect width="11.941" height="59.707" transform="translate(35.824 59.707) rotate(180)" fill="#d7ad7d"/><rect width="11.941" height="59.707" transform="translate(11.941 59.707) rotate(180)" fill="#d7ad7d"/></g></g><g transform="translate(643.457 591.913)" opacity="0.104"><g transform="translate(62.095)"><rect width="11.941" height="59.707" transform="translate(59.707 0) rotate(90)" fill="#d7ad7d"/><rect width="11.941" height="59.707" transform="translate(59.707 23.883) rotate(90)" fill="#d7ad7d"/><rect width="11.941" height="59.707" transform="translate(59.707 47.766) rotate(90)" fill="#d7ad7d"/></g><g transform="translate(62.096 62.095)"><rect width="11.941" height="59.707" transform="translate(59.707 59.707) rotate(180)" fill="#d7ad7d"/><rect width="11.941" height="59.707" transform="translate(35.824 59.707) rotate(180)" fill="#d7ad7d"/><rect width="11.941" height="59.707" transform="translate(11.941 59.707) rotate(180)" fill="#d7ad7d"/></g><g transform="translate(0 62.095)"><rect width="11.941" height="59.707" transform="translate(0 59.707) rotate(-90)" fill="#d7ad7d"/><rect width="11.941" height="59.707" transform="translate(0 35.824) rotate(-90)" fill="#d7ad7d"/><rect width="11.941" height="59.707" transform="translate(0 11.941) rotate(-90)" fill="#d7ad7d"/></g><g transform="translate(0)"><rect width="11.941" height="59.707" transform="translate(59.707 59.707) rotate(180)" fill="#d7ad7d"/><rect width="11.941" height="59.707" transform="translate(35.824 59.707) rotate(180)" fill="#d7ad7d"/><rect width="11.941" height="59.707" transform="translate(11.941 59.707) rotate(180)" fill="#d7ad7d"/></g></g><g transform="translate(768.914 591.913)" opacity="0.104"><g transform="translate(62.095)"><rect width="11.941" height="59.707" transform="translate(59.707 0) rotate(90)" fill="#d7ad7d"/><rect width="11.941" height="59.707" transform="translate(59.707 23.883) rotate(90)" fill="#d7ad7d"/><rect width="11.941" height="59.707" transform="translate(59.707 47.766) rotate(90)" fill="#d7ad7d"/></g><g transform="translate(62.096 62.095)"><rect width="11.941" height="59.707" transform="translate(59.707 59.707) rotate(180)" fill="#d7ad7d"/><rect width="11.941" height="59.707" transform="translate(35.824 59.707) rotate(180)" fill="#d7ad7d"/><rect width="11.941" height="59.707" transform="translate(11.941 59.707) rotate(180)" fill="#d7ad7d"/></g><g transform="translate(0 62.095)"><rect width="11.941" height="59.707" transform="translate(0 59.707) rotate(-90)" fill="#d7ad7d"/><rect width="11.941" height="59.707" transform="translate(0 35.824) rotate(-90)" fill="#d7ad7d"/><rect width="11.941" height="59.707" transform="translate(0 11.941) rotate(-90)" fill="#d7ad7d"/></g><g transform="translate(0)"><rect width="11.941" height="59.707" transform="translate(59.707 59.707) rotate(180)" fill="#d7ad7d"/><rect width="11.941" height="59.707" transform="translate(35.824 59.707) rotate(180)" fill="#d7ad7d"/><rect width="11.941" height="59.707" transform="translate(11.941 59.707) rotate(180)" fill="#d7ad7d"/></g></g><g transform="translate(894.37 591.913)" opacity="0.104"><g transform="translate(62.095)"><rect width="11.941" height="59.707" transform="translate(59.707 0) rotate(90)" fill="#d7ad7d"/><rect width="11.941" height="59.707" transform="translate(59.707 23.883) rotate(90)" fill="#d7ad7d"/><rect width="11.941" height="59.707" transform="translate(59.707 47.766) rotate(90)" fill="#d7ad7d"/></g><g transform="translate(62.096 62.095)"><rect width="11.941" height="59.707" transform="translate(59.707 59.707) rotate(180)" fill="#d7ad7d"/><rect width="11.941" height="59.707" transform="translate(35.824 59.707) rotate(180)" fill="#d7ad7d"/><rect width="11.941" height="59.707" transform="translate(11.941 59.707) rotate(180)" fill="#d7ad7d"/></g><g transform="translate(0 62.095)"><rect width="11.941" height="59.707" transform="translate(0 59.707) rotate(-90)" fill="#d7ad7d"/><rect width="11.941" height="59.707" transform="translate(0 35.824) rotate(-90)" fill="#d7ad7d"/><rect width="11.941" height="59.707" transform="translate(0 11.941) rotate(-90)" fill="#d7ad7d"/></g><g transform="translate(0)"><rect width="11.941" height="59.707" transform="translate(59.707 59.707) rotate(180)" fill="#d7ad7d"/><rect width="11.941" height="59.707" transform="translate(35.824 59.707) rotate(180)" fill="#d7ad7d"/><rect width="11.941" height="59.707" transform="translate(11.941 59.707) rotate(180)" fill="#d7ad7d"/></g></g><g transform="translate(1019.827 591.913)" opacity="0.104"><g transform="translate(62.095)"><rect width="11.941" height="59.707" transform="translate(59.707 0) rotate(90)" fill="#d7ad7d"/><rect width="11.941" height="59.707" transform="translate(59.707 23.883) rotate(90)" fill="#d7ad7d"/><rect width="11.941" height="59.707" transform="translate(59.707 47.766) rotate(90)" fill="#d7ad7d"/></g><g transform="translate(62.096 62.095)"><rect width="11.941" height="59.707" transform="translate(59.707 59.707) rotate(180)" fill="#d7ad7d"/><rect width="11.941" height="59.707" transform="translate(35.824 59.707) rotate(180)" fill="#d7ad7d"/><rect width="11.941" height="59.707" transform="translate(11.941 59.707) rotate(180)" fill="#d7ad7d"/></g><g transform="translate(0 62.095)"><rect width="11.941" height="59.707" transform="translate(0 59.707) rotate(-90)" fill="#d7ad7d"/><rect width="11.941" height="59.707" transform="translate(0 35.824) rotate(-90)" fill="#d7ad7d"/><rect width="11.941" height="59.707" transform="translate(0 11.941) rotate(-90)" fill="#d7ad7d"/></g><g transform="translate(0)"><rect width="11.941" height="59.707" transform="translate(59.707 59.707) rotate(180)" fill="#d7ad7d"/><rect width="11.941" height="59.707" transform="translate(35.824 59.707) rotate(180)" fill="#d7ad7d"/><rect width="11.941" height="59.707" transform="translate(11.941 59.707) rotate(180)" fill="#d7ad7d"/></g></g><g transform="translate(1145.284 591.913)" opacity="0.104"><g transform="translate(62.095)"><rect width="11.941" height="59.707" transform="translate(59.707 0) rotate(90)" fill="#d7ad7d"/><rect width="11.941" height="59.707" transform="translate(59.707 23.883) rotate(90)" fill="#d7ad7d"/><rect width="11.941" height="59.707" transform="translate(59.707 47.766) rotate(90)" fill="#d7ad7d"/></g><g transform="translate(62.096 62.095)"><rect width="11.941" height="59.707" transform="translate(59.707 59.707) rotate(180)" fill="#d7ad7d"/><rect width="11.941" height="59.707" transform="translate(35.824 59.707) rotate(180)" fill="#d7ad7d"/><rect width="11.941" height="59.707" transform="translate(11.941 59.707) rotate(180)" fill="#d7ad7d"/></g><g transform="translate(0 62.095)"><rect width="11.941" height="59.707" transform="translate(0 59.707) rotate(-90)" fill="#d7ad7d"/><rect width="11.941" height="59.707" transform="translate(0 35.824) rotate(-90)" fill="#d7ad7d"/><rect width="11.941" height="59.707" transform="translate(0 11.941) rotate(-90)" fill="#d7ad7d"/></g><g transform="translate(0)"><rect width="11.941" height="59.707" transform="translate(59.707 59.707) rotate(180)" fill="#d7ad7d"/><rect width="11.941" height="59.707" transform="translate(35.824 59.707) rotate(180)" fill="#d7ad7d"/><rect width="11.941" height="59.707" transform="translate(11.941 59.707) rotate(180)" fill="#d7ad7d"/></g></g><g transform="translate(518 466.457)" opacity="0.104"><g transform="translate(62.095)"><rect width="11.941" height="59.707" transform="translate(59.707 0) rotate(90)" fill="#d7ad7d"/><rect width="11.941" height="59.707" transform="translate(59.707 23.883) rotate(90)" fill="#d7ad7d"/><rect width="11.941" height="59.707" transform="translate(59.707 47.766) rotate(90)" fill="#d7ad7d"/></g><g transform="translate(62.096 62.095)"><rect width="11.941" height="59.707" transform="translate(59.707 59.707) rotate(180)" fill="#d7ad7d"/><rect width="11.941" height="59.707" transform="translate(35.824 59.707) rotate(180)" fill="#d7ad7d"/><rect width="11.941" height="59.707" transform="translate(11.941 59.707) rotate(180)" fill="#d7ad7d"/></g><g transform="translate(0 62.095)"><rect width="11.941" height="59.707" transform="translate(0 59.707) rotate(-90)" fill="#d7ad7d"/><rect width="11.941" height="59.707" transform="translate(0 35.824) rotate(-90)" fill="#d7ad7d"/><rect width="11.941" height="59.707" transform="translate(0 11.941) rotate(-90)" fill="#d7ad7d"/></g><g transform="translate(0)"><rect width="11.941" height="59.707" transform="translate(59.707 59.707) rotate(180)" fill="#d7ad7d"/><rect width="11.941" height="59.707" transform="translate(35.824 59.707) rotate(180)" fill="#d7ad7d"/><rect width="11.941" height="59.707" transform="translate(11.941 59.707) rotate(180)" fill="#d7ad7d"/></g></g><g transform="translate(643.457 466.457)" opacity="0.104"><g transform="translate(62.095)"><rect width="11.941" height="59.707" transform="translate(59.707 0) rotate(90)" fill="#d7ad7d"/><rect width="11.941" height="59.707" transform="translate(59.707 23.883) rotate(90)" fill="#d7ad7d"/><rect width="11.941" height="59.707" transform="translate(59.707 47.766) rotate(90)" fill="#d7ad7d"/></g><g transform="translate(62.096 62.095)"><rect width="11.941" height="59.707" transform="translate(59.707 59.707) rotate(180)" fill="#d7ad7d"/><rect width="11.941" height="59.707" transform="translate(35.824 59.707) rotate(180)" fill="#d7ad7d"/><rect width="11.941" height="59.707" transform="translate(11.941 59.707) rotate(180)" fill="#d7ad7d"/></g><g transform="translate(0 62.095)"><rect width="11.941" height="59.707" transform="translate(0 59.707) rotate(-90)" fill="#d7ad7d"/><rect width="11.941" height="59.707" transform="translate(0 35.824) rotate(-90)" fill="#d7ad7d"/><rect width="11.941" height="59.707" transform="translate(0 11.941) rotate(-90)" fill="#d7ad7d"/></g><g transform="translate(0)"><rect width="11.941" height="59.707" transform="translate(59.707 59.707) rotate(180)" fill="#d7ad7d"/><rect width="11.941" height="59.707" transform="translate(35.824 59.707) rotate(180)" fill="#d7ad7d"/><rect width="11.941" height="59.707" transform="translate(11.941 59.707) rotate(180)" fill="#d7ad7d"/></g></g><g transform="translate(768.914 466.457)" opacity="0.104"><g transform="translate(62.095)"><rect width="11.941" height="59.707" transform="translate(59.707 0) rotate(90)" fill="#d7ad7d"/><rect width="11.941" height="59.707" transform="translate(59.707 23.883) rotate(90)" fill="#d7ad7d"/><rect width="11.941" height="59.707" transform="translate(59.707 47.766) rotate(90)" fill="#d7ad7d"/></g><g transform="translate(62.096 62.095)"><rect width="11.941" height="59.707" transform="translate(59.707 59.707) rotate(180)" fill="#d7ad7d"/><rect width="11.941" height="59.707" transform="translate(35.824 59.707) rotate(180)" fill="#d7ad7d"/><rect width="11.941" height="59.707" transform="translate(11.941 59.707) rotate(180)" fill="#d7ad7d"/></g><g transform="translate(0 62.095)"><rect width="11.941" height="59.707" transform="translate(0 59.707) rotate(-90)" fill="#d7ad7d"/><rect width="11.941" height="59.707" transform="translate(0 35.824) rotate(-90)" fill="#d7ad7d"/><rect width="11.941" height="59.707" transform="translate(0 11.941) rotate(-90)" fill="#d7ad7d"/></g><g transform="translate(0)"><rect width="11.941" height="59.707" transform="translate(59.707 59.707) rotate(180)" fill="#d7ad7d"/><rect width="11.941" height="59.707" transform="translate(35.824 59.707) rotate(180)" fill="#d7ad7d"/><rect width="11.941" height="59.707" transform="translate(11.941 59.707) rotate(180)" fill="#d7ad7d"/></g></g><g transform="translate(894.37 466.457)" opacity="0.104"><g transform="translate(62.095)"><rect width="11.941" height="59.707" transform="translate(59.707 0) rotate(90)" fill="#d7ad7d"/><rect width="11.941" height="59.707" transform="translate(59.707 23.883) rotate(90)" fill="#d7ad7d"/><rect width="11.941" height="59.707" transform="translate(59.707 47.766) rotate(90)" fill="#d7ad7d"/></g><g transform="translate(62.096 62.095)"><rect width="11.941" height="59.707" transform="translate(59.707 59.707) rotate(180)" fill="#d7ad7d"/><rect width="11.941" height="59.707" transform="translate(35.824 59.707) rotate(180)" fill="#d7ad7d"/><rect width="11.941" height="59.707" transform="translate(11.941 59.707) rotate(180)" fill="#d7ad7d"/></g><g transform="translate(0 62.095)"><rect width="11.941" height="59.707" transform="translate(0 59.707) rotate(-90)" fill="#d7ad7d"/><rect width="11.941" height="59.707" transform="translate(0 35.824) rotate(-90)" fill="#d7ad7d"/><rect width="11.941" height="59.707" transform="translate(0 11.941) rotate(-90)" fill="#d7ad7d"/></g><g transform="translate(0)"><rect width="11.941" height="59.707" transform="translate(59.707 59.707) rotate(180)" fill="#d7ad7d"/><rect width="11.941" height="59.707" transform="translate(35.824 59.707) rotate(180)" fill="#d7ad7d"/><rect width="11.941" height="59.707" transform="translate(11.941 59.707) rotate(180)" fill="#d7ad7d"/></g></g><g transform="translate(1019.827 466.457)" opacity="0.104"><g transform="translate(62.095)"><rect width="11.941" height="59.707" transform="translate(59.707 0) rotate(90)" fill="#d7ad7d"/><rect width="11.941" height="59.707" transform="translate(59.707 23.883) rotate(90)" fill="#d7ad7d"/><rect width="11.941" height="59.707" transform="translate(59.707 47.766) rotate(90)" fill="#d7ad7d"/></g><g transform="translate(62.096 62.095)"><rect width="11.941" height="59.707" transform="translate(59.707 59.707) rotate(180)" fill="#d7ad7d"/><rect width="11.941" height="59.707" transform="translate(35.824 59.707) rotate(180)" fill="#d7ad7d"/><rect width="11.941" height="59.707" transform="translate(11.941 59.707) rotate(180)" fill="#d7ad7d"/></g><g transform="translate(0 62.095)"><rect width="11.941" height="59.707" transform="translate(0 59.707) rotate(-90)" fill="#d7ad7d"/><rect width="11.941" height="59.707" transform="translate(0 35.824) rotate(-90)" fill="#d7ad7d"/><rect width="11.941" height="59.707" transform="translate(0 11.941) rotate(-90)" fill="#d7ad7d"/></g><g transform="translate(0)"><rect width="11.941" height="59.707" transform="translate(59.707 59.707) rotate(180)" fill="#d7ad7d"/><rect width="11.941" height="59.707" transform="translate(35.824 59.707) rotate(180)" fill="#d7ad7d"/><rect width="11.941" height="59.707" transform="translate(11.941 59.707) rotate(180)" fill="#d7ad7d"/></g></g><g transform="translate(1145.284 466.457)" opacity="0.104"><g transform="translate(62.095)"><rect width="11.941" height="59.707" transform="translate(59.707 0) rotate(90)" fill="#d7ad7d"/><rect width="11.941" height="59.707" transform="translate(59.707 23.883) rotate(90)" fill="#d7ad7d"/><rect width="11.941" height="59.707" transform="translate(59.707 47.766) rotate(90)" fill="#d7ad7d"/></g><g transform="translate(62.096 62.095)"><rect width="11.941" height="59.707" transform="translate(59.707 59.707) rotate(180)" fill="#d7ad7d"/><rect width="11.941" height="59.707" transform="translate(35.824 59.707) rotate(180)" fill="#d7ad7d"/><rect width="11.941" height="59.707" transform="translate(11.941 59.707) rotate(180)" fill="#d7ad7d"/></g><g transform="translate(0 62.095)"><rect width="11.941" height="59.707" transform="translate(0 59.707) rotate(-90)" fill="#d7ad7d"/><rect width="11.941" height="59.707" transform="translate(0 35.824) rotate(-90)" fill="#d7ad7d"/><rect width="11.941" height="59.707" transform="translate(0 11.941) rotate(-90)" fill="#d7ad7d"/></g><g transform="translate(0)"><rect width="11.941" height="59.707" transform="translate(59.707 59.707) rotate(180)" fill="#d7ad7d"/><rect width="11.941" height="59.707" transform="translate(35.824 59.707) rotate(180)" fill="#d7ad7d"/><rect width="11.941" height="59.707" transform="translate(11.941 59.707) rotate(180)" fill="#d7ad7d"/></g></g><g transform="translate(518 341)" opacity="0.104"><g transform="translate(62.095)"><rect width="11.941" height="59.707" transform="translate(59.707 0) rotate(90)" fill="#d7ad7d"/><rect width="11.941" height="59.707" transform="translate(59.707 23.883) rotate(90)" fill="#d7ad7d"/><rect width="11.941" height="59.707" transform="translate(59.707 47.766) rotate(90)" fill="#d7ad7d"/></g><g transform="translate(62.096 62.095)"><rect width="11.941" height="59.707" transform="translate(59.707 59.707) rotate(180)" fill="#d7ad7d"/><rect width="11.941" height="59.707" transform="translate(35.824 59.707) rotate(180)" fill="#d7ad7d"/><rect width="11.941" height="59.707" transform="translate(11.941 59.707) rotate(180)" fill="#d7ad7d"/></g><g transform="translate(0 62.095)"><rect width="11.941" height="59.707" transform="translate(0 59.707) rotate(-90)" fill="#d7ad7d"/><rect width="11.941" height="59.707" transform="translate(0 35.824) rotate(-90)" fill="#d7ad7d"/><rect width="11.941" height="59.707" transform="translate(0 11.941) rotate(-90)" fill="#d7ad7d"/></g><g transform="translate(0)"><rect width="11.941" height="59.707" transform="translate(59.707 59.707) rotate(180)" fill="#d7ad7d"/><rect width="11.941" height="59.707" transform="translate(35.824 59.707) rotate(180)" fill="#d7ad7d"/><rect width="11.941" height="59.707" transform="translate(11.941 59.707) rotate(180)" fill="#d7ad7d"/></g></g><g transform="translate(643.457 341)" opacity="0.104"><g transform="translate(62.095)"><rect width="11.941" height="59.707" transform="translate(59.707 0) rotate(90)" fill="#d7ad7d"/><rect width="11.941" height="59.707" transform="translate(59.707 23.883) rotate(90)" fill="#d7ad7d"/><rect width="11.941" height="59.707" transform="translate(59.707 47.766) rotate(90)" fill="#d7ad7d"/></g><g transform="translate(62.096 62.095)"><rect width="11.941" height="59.707" transform="translate(59.707 59.707) rotate(180)" fill="#d7ad7d"/><rect width="11.941" height="59.707" transform="translate(35.824 59.707) rotate(180)" fill="#d7ad7d"/><rect width="11.941" height="59.707" transform="translate(11.941 59.707) rotate(180)" fill="#d7ad7d"/></g><g transform="translate(0 62.095)"><rect width="11.941" height="59.707" transform="translate(0 59.707) rotate(-90)" fill="#d7ad7d"/><rect width="11.941" height="59.707" transform="translate(0 35.824) rotate(-90)" fill="#d7ad7d"/><rect width="11.941" height="59.707" transform="translate(0 11.941) rotate(-90)" fill="#d7ad7d"/></g><g transform="translate(0)"><rect width="11.941" height="59.707" transform="translate(59.707 59.707) rotate(180)" fill="#d7ad7d"/><rect width="11.941" height="59.707" transform="translate(35.824 59.707) rotate(180)" fill="#d7ad7d"/><rect width="11.941" height="59.707" transform="translate(11.941 59.707) rotate(180)" fill="#d7ad7d"/></g></g><g transform="translate(768.914 341)" opacity="0.104"><g transform="translate(62.095)"><rect width="11.941" height="59.707" transform="translate(59.707 0) rotate(90)" fill="#d7ad7d"/><rect width="11.941" height="59.707" transform="translate(59.707 23.883) rotate(90)" fill="#d7ad7d"/><rect width="11.941" height="59.707" transform="translate(59.707 47.766) rotate(90)" fill="#d7ad7d"/></g><g transform="translate(62.096 62.095)"><rect width="11.941" height="59.707" transform="translate(59.707 59.707) rotate(180)" fill="#d7ad7d"/><rect width="11.941" height="59.707" transform="translate(35.824 59.707) rotate(180)" fill="#d7ad7d"/><rect width="11.941" height="59.707" transform="translate(11.941 59.707) rotate(180)" fill="#d7ad7d"/></g><g transform="translate(0 62.095)"><rect width="11.941" height="59.707" transform="translate(0 59.707) rotate(-90)" fill="#d7ad7d"/><rect width="11.941" height="59.707" transform="translate(0 35.824) rotate(-90)" fill="#d7ad7d"/><rect width="11.941" height="59.707" transform="translate(0 11.941) rotate(-90)" fill="#d7ad7d"/></g><g transform="translate(0)"><rect width="11.941" height="59.707" transform="translate(59.707 59.707) rotate(180)" fill="#d7ad7d"/><rect width="11.941" height="59.707" transform="translate(35.824 59.707) rotate(180)" fill="#d7ad7d"/><rect width="11.941" height="59.707" transform="translate(11.941 59.707) rotate(180)" fill="#d7ad7d"/></g></g><g transform="translate(894.37 341)" opacity="0.104"><g transform="translate(62.095)"><rect width="11.941" height="59.707" transform="translate(59.707 0) rotate(90)" fill="#d7ad7d"/><rect width="11.941" height="59.707" transform="translate(59.707 23.883) rotate(90)" fill="#d7ad7d"/><rect width="11.941" height="59.707" transform="translate(59.707 47.766) rotate(90)" fill="#d7ad7d"/></g><g transform="translate(62.096 62.095)"><rect width="11.941" height="59.707" transform="translate(59.707 59.707) rotate(180)" fill="#d7ad7d"/><rect width="11.941" height="59.707" transform="translate(35.824 59.707) rotate(180)" fill="#d7ad7d"/><rect width="11.941" height="59.707" transform="translate(11.941 59.707) rotate(180)" fill="#d7ad7d"/></g><g transform="translate(0 62.095)"><rect width="11.941" height="59.707" transform="translate(0 59.707) rotate(-90)" fill="#d7ad7d"/><rect width="11.941" height="59.707" transform="translate(0 35.824) rotate(-90)" fill="#d7ad7d"/><rect width="11.941" height="59.707" transform="translate(0 11.941) rotate(-90)" fill="#d7ad7d"/></g><g transform="translate(0)"><rect width="11.941" height="59.707" transform="translate(59.707 59.707) rotate(180)" fill="#d7ad7d"/><rect width="11.941" height="59.707" transform="translate(35.824 59.707) rotate(180)" fill="#d7ad7d"/><rect width="11.941" height="59.707" transform="translate(11.941 59.707) rotate(180)" fill="#d7ad7d"/></g></g><g transform="translate(1019.827 341)" opacity="0.104"><g transform="translate(62.095)"><rect width="11.941" height="59.707" transform="translate(59.707 0) rotate(90)" fill="#d7ad7d"/><rect width="11.941" height="59.707" transform="translate(59.707 23.883) rotate(90)" fill="#d7ad7d"/><rect width="11.941" height="59.707" transform="translate(59.707 47.766) rotate(90)" fill="#d7ad7d"/></g><g transform="translate(62.096 62.095)"><rect width="11.941" height="59.707" transform="translate(59.707 59.707) rotate(180)" fill="#d7ad7d"/><rect width="11.941" height="59.707" transform="translate(35.824 59.707) rotate(180)" fill="#d7ad7d"/><rect width="11.941" height="59.707" transform="translate(11.941 59.707) rotate(180)" fill="#d7ad7d"/></g><g transform="translate(0 62.095)"><rect width="11.941" height="59.707" transform="translate(0 59.707) rotate(-90)" fill="#d7ad7d"/><rect width="11.941" height="59.707" transform="translate(0 35.824) rotate(-90)" fill="#d7ad7d"/><rect width="11.941" height="59.707" transform="translate(0 11.941) rotate(-90)" fill="#d7ad7d"/></g><g transform="translate(0)"><rect width="11.941" height="59.707" transform="translate(59.707 59.707) rotate(180)" fill="#d7ad7d"/><rect width="11.941" height="59.707" transform="translate(35.824 59.707) rotate(180)" fill="#d7ad7d"/><rect width="11.941" height="59.707" transform="translate(11.941 59.707) rotate(180)" fill="#d7ad7d"/></g></g><g transform="translate(1145.284 341)" opacity="0.104"><g transform="translate(62.095)"><rect width="11.941" height="59.707" transform="translate(59.707 0) rotate(90)" fill="#d7ad7d"/><rect width="11.941" height="59.707" transform="translate(59.707 23.883) rotate(90)" fill="#d7ad7d"/><rect width="11.941" height="59.707" transform="translate(59.707 47.766) rotate(90)" fill="#d7ad7d"/></g><g transform="translate(62.096 62.095)"><rect width="11.941" height="59.707" transform="translate(59.707 59.707) rotate(180)" fill="#d7ad7d"/><rect width="11.941" height="59.707" transform="translate(35.824 59.707) rotate(180)" fill="#d7ad7d"/><rect width="11.941" height="59.707" transform="translate(11.941 59.707) rotate(180)" fill="#d7ad7d"/></g><g transform="translate(0 62.095)"><rect width="11.941" height="59.707" transform="translate(0 59.707) rotate(-90)" fill="#d7ad7d"/><rect width="11.941" height="59.707" transform="translate(0 35.824) rotate(-90)" fill="#d7ad7d"/><rect width="11.941" height="59.707" transform="translate(0 11.941) rotate(-90)" fill="#d7ad7d"/></g><g transform="translate(0)"><rect width="11.941" height="59.707" transform="translate(59.707 59.707) rotate(180)" fill="#d7ad7d"/><rect width="11.941" height="59.707" transform="translate(35.824 59.707) rotate(180)" fill="#d7ad7d"/><rect width="11.941" height="59.707" transform="translate(11.941 59.707) rotate(180)" fill="#d7ad7d"/></g></g><g transform="translate(518 843.37)" opacity="0.104"><g transform="translate(62.095)"><rect width="11.941" height="59.707" transform="translate(59.707 0) rotate(90)" fill="#d7ad7d"/><rect width="11.941" height="59.707" transform="translate(59.707 23.883) rotate(90)" fill="#d7ad7d"/><rect width="11.941" height="59.707" transform="translate(59.707 47.766) rotate(90)" fill="#d7ad7d"/></g><g transform="translate(62.096 62.095)"><rect width="11.941" height="59.707" transform="translate(59.707 59.707) rotate(180)" fill="#d7ad7d"/><rect width="11.941" height="59.707" transform="translate(35.824 59.707) rotate(180)" fill="#d7ad7d"/><rect width="11.941" height="59.707" transform="translate(11.941 59.707) rotate(180)" fill="#d7ad7d"/></g><g transform="translate(0 62.095)"><rect width="11.941" height="59.707" transform="translate(0 59.707) rotate(-90)" fill="#d7ad7d"/><rect width="11.941" height="59.707" transform="translate(0 35.824) rotate(-90)" fill="#d7ad7d"/><rect width="11.941" height="59.707" transform="translate(0 11.941) rotate(-90)" fill="#d7ad7d"/></g><g transform="translate(0)"><rect width="11.941" height="59.707" transform="translate(59.707 59.707) rotate(180)" fill="#d7ad7d"/><rect width="11.941" height="59.707" transform="translate(35.824 59.707) rotate(180)" fill="#d7ad7d"/><rect width="11.941" height="59.707" transform="translate(11.941 59.707) rotate(180)" fill="#d7ad7d"/></g></g><g transform="translate(643.457 843.37)" opacity="0.104"><g transform="translate(62.095)"><rect width="11.941" height="59.707" transform="translate(59.707 0) rotate(90)" fill="#d7ad7d"/><rect width="11.941" height="59.707" transform="translate(59.707 23.883) rotate(90)" fill="#d7ad7d"/><rect width="11.941" height="59.707" transform="translate(59.707 47.766) rotate(90)" fill="#d7ad7d"/></g><g transform="translate(62.096 62.095)"><rect width="11.941" height="59.707" transform="translate(59.707 59.707) rotate(180)" fill="#d7ad7d"/><rect width="11.941" height="59.707" transform="translate(35.824 59.707) rotate(180)" fill="#d7ad7d"/><rect width="11.941" height="59.707" transform="translate(11.941 59.707) rotate(180)" fill="#d7ad7d"/></g><g transform="translate(0 62.095)"><rect width="11.941" height="59.707" transform="translate(0 59.707) rotate(-90)" fill="#d7ad7d"/><rect width="11.941" height="59.707" transform="translate(0 35.824) rotate(-90)" fill="#d7ad7d"/><rect width="11.941" height="59.707" transform="translate(0 11.941) rotate(-90)" fill="#d7ad7d"/></g><g transform="translate(0)"><rect width="11.941" height="59.707" transform="translate(59.707 59.707) rotate(180)" fill="#d7ad7d"/><rect width="11.941" height="59.707" transform="translate(35.824 59.707) rotate(180)" fill="#d7ad7d"/><rect width="11.941" height="59.707" transform="translate(11.941 59.707) rotate(180)" fill="#d7ad7d"/></g></g><g transform="translate(768.914 843.37)" opacity="0.104"><g transform="translate(62.095)"><rect width="11.941" height="59.707" transform="translate(59.707 0) rotate(90)" fill="#d7ad7d"/><rect width="11.941" height="59.707" transform="translate(59.707 23.883) rotate(90)" fill="#d7ad7d"/><rect width="11.941" height="59.707" transform="translate(59.707 47.766) rotate(90)" fill="#d7ad7d"/></g><g transform="translate(62.096 62.095)"><rect width="11.941" height="59.707" transform="translate(59.707 59.707) rotate(180)" fill="#d7ad7d"/><rect width="11.941" height="59.707" transform="translate(35.824 59.707) rotate(180)" fill="#d7ad7d"/><rect width="11.941" height="59.707" transform="translate(11.941 59.707) rotate(180)" fill="#d7ad7d"/></g><g transform="translate(0 62.095)"><rect width="11.941" height="59.707" transform="translate(0 59.707) rotate(-90)" fill="#d7ad7d"/><rect width="11.941" height="59.707" transform="translate(0 35.824) rotate(-90)" fill="#d7ad7d"/><rect width="11.941" height="59.707" transform="translate(0 11.941) rotate(-90)" fill="#d7ad7d"/></g><g transform="translate(0)"><rect width="11.941" height="59.707" transform="translate(59.707 59.707) rotate(180)" fill="#d7ad7d"/><rect width="11.941" height="59.707" transform="translate(35.824 59.707) rotate(180)" fill="#d7ad7d"/><rect width="11.941" height="59.707" transform="translate(11.941 59.707) rotate(180)" fill="#d7ad7d"/></g></g><g transform="translate(894.37 843.37)" opacity="0.104"><g transform="translate(62.095)"><rect width="11.941" height="59.707" transform="translate(59.707 0) rotate(90)" fill="#d7ad7d"/><rect width="11.941" height="59.707" transform="translate(59.707 23.883) rotate(90)" fill="#d7ad7d"/><rect width="11.941" height="59.707" transform="translate(59.707 47.766) rotate(90)" fill="#d7ad7d"/></g><g transform="translate(62.096 62.095)"><rect width="11.941" height="59.707" transform="translate(59.707 59.707) rotate(180)" fill="#d7ad7d"/><rect width="11.941" height="59.707" transform="translate(35.824 59.707) rotate(180)" fill="#d7ad7d"/><rect width="11.941" height="59.707" transform="translate(11.941 59.707) rotate(180)" fill="#d7ad7d"/></g><g transform="translate(0 62.095)"><rect width="11.941" height="59.707" transform="translate(0 59.707) rotate(-90)" fill="#d7ad7d"/><rect width="11.941" height="59.707" transform="translate(0 35.824) rotate(-90)" fill="#d7ad7d"/><rect width="11.941" height="59.707" transform="translate(0 11.941) rotate(-90)" fill="#d7ad7d"/></g><g transform="translate(0)"><rect width="11.941" height="59.707" transform="translate(59.707 59.707) rotate(180)" fill="#d7ad7d"/><rect width="11.941" height="59.707" transform="translate(35.824 59.707) rotate(180)" fill="#d7ad7d"/><rect width="11.941" height="59.707" transform="translate(11.941 59.707) rotate(180)" fill="#d7ad7d"/></g></g><g transform="translate(1019.827 843.37)" opacity="0.104"><g transform="translate(62.095)"><rect width="11.941" height="59.707" transform="translate(59.707 0) rotate(90)" fill="#d7ad7d"/><rect width="11.941" height="59.707" transform="translate(59.707 23.883) rotate(90)" fill="#d7ad7d"/><rect width="11.941" height="59.707" transform="translate(59.707 47.766) rotate(90)" fill="#d7ad7d"/></g><g transform="translate(62.096 62.095)"><rect width="11.941" height="59.707" transform="translate(59.707 59.707) rotate(180)" fill="#d7ad7d"/><rect width="11.941" height="59.707" transform="translate(35.824 59.707) rotate(180)" fill="#d7ad7d"/><rect width="11.941" height="59.707" transform="translate(11.941 59.707) rotate(180)" fill="#d7ad7d"/></g><g transform="translate(0 62.095)"><rect width="11.941" height="59.707" transform="translate(0 59.707) rotate(-90)" fill="#d7ad7d"/><rect width="11.941" height="59.707" transform="translate(0 35.824) rotate(-90)" fill="#d7ad7d"/><rect width="11.941" height="59.707" transform="translate(0 11.941) rotate(-90)" fill="#d7ad7d"/></g><g transform="translate(0)"><rect width="11.941" height="59.707" transform="translate(59.707 59.707) rotate(180)" fill="#d7ad7d"/><rect width="11.941" height="59.707" transform="translate(35.824 59.707) rotate(180)" fill="#d7ad7d"/><rect width="11.941" height="59.707" transform="translate(11.941 59.707) rotate(180)" fill="#d7ad7d"/></g></g><g transform="translate(1145.284 843.37)" opacity="0.104"><g transform="translate(62.095)"><rect width="11.941" height="59.707" transform="translate(59.707 0) rotate(90)" fill="#d7ad7d"/><rect width="11.941" height="59.707" transform="translate(59.707 23.883) rotate(90)" fill="#d7ad7d"/><rect width="11.941" height="59.707" transform="translate(59.707 47.766) rotate(90)" fill="#d7ad7d"/></g><g transform="translate(62.096 62.095)"><rect width="11.941" height="59.707" transform="translate(59.707 59.707) rotate(180)" fill="#d7ad7d"/><rect width="11.941" height="59.707" transform="translate(35.824 59.707) rotate(180)" fill="#d7ad7d"/><rect width="11.941" height="59.707" transform="translate(11.941 59.707) rotate(180)" fill="#d7ad7d"/></g><g transform="translate(0 62.095)"><rect width="11.941" height="59.707" transform="translate(0 59.707) rotate(-90)" fill="#d7ad7d"/><rect width="11.941" height="59.707" transform="translate(0 35.824) rotate(-90)" fill="#d7ad7d"/><rect width="11.941" height="59.707" transform="translate(0 11.941) rotate(-90)" fill="#d7ad7d"/></g><g transform="translate(0)"><rect width="11.941" height="59.707" transform="translate(59.707 59.707) rotate(180)" fill="#d7ad7d"/><rect width="11.941" height="59.707" transform="translate(35.824 59.707) rotate(180)" fill="#d7ad7d"/><rect width="11.941" height="59.707" transform="translate(11.941 59.707) rotate(180)" fill="#d7ad7d"/></g></g><g transform="translate(518 969.37)" opacity="0.104"><g transform="translate(62.095)"><rect width="11.941" height="59.707" transform="translate(59.707 0) rotate(90)" fill="#d7ad7d"/><rect width="11.941" height="59.707" transform="translate(59.707 23.883) rotate(90)" fill="#d7ad7d"/><rect width="11.941" height="59.707" transform="translate(59.707 47.766) rotate(90)" fill="#d7ad7d"/></g><g transform="translate(62.096 62.095)"><rect width="11.941" height="59.707" transform="translate(59.707 59.707) rotate(180)" fill="#d7ad7d"/><rect width="11.941" height="59.707" transform="translate(35.824 59.707) rotate(180)" fill="#d7ad7d"/><rect width="11.941" height="59.707" transform="translate(11.941 59.707) rotate(180)" fill="#d7ad7d"/></g><g transform="translate(0 62.095)"><rect width="11.941" height="59.707" transform="translate(0 59.707) rotate(-90)" fill="#d7ad7d"/><rect width="11.941" height="59.707" transform="translate(0 35.824) rotate(-90)" fill="#d7ad7d"/><rect width="11.941" height="59.707" transform="translate(0 11.941) rotate(-90)" fill="#d7ad7d"/></g><g transform="translate(0)"><rect width="11.941" height="59.707" transform="translate(59.707 59.707) rotate(180)" fill="#d7ad7d"/><rect width="11.941" height="59.707" transform="translate(35.824 59.707) rotate(180)" fill="#d7ad7d"/><rect width="11.941" height="59.707" transform="translate(11.941 59.707) rotate(180)" fill="#d7ad7d"/></g></g><g transform="translate(643.457 969.37)" opacity="0.104"><g transform="translate(62.095)"><rect width="11.941" height="59.707" transform="translate(59.707 0) rotate(90)" fill="#d7ad7d"/><rect width="11.941" height="59.707" transform="translate(59.707 23.883) rotate(90)" fill="#d7ad7d"/><rect width="11.941" height="59.707" transform="translate(59.707 47.766) rotate(90)" fill="#d7ad7d"/></g><g transform="translate(62.096 62.095)"><rect width="11.941" height="59.707" transform="translate(59.707 59.707) rotate(180)" fill="#d7ad7d"/><rect width="11.941" height="59.707" transform="translate(35.824 59.707) rotate(180)" fill="#d7ad7d"/><rect width="11.941" height="59.707" transform="translate(11.941 59.707) rotate(180)" fill="#d7ad7d"/></g><g transform="translate(0 62.095)"><rect width="11.941" height="59.707" transform="translate(0 59.707) rotate(-90)" fill="#d7ad7d"/><rect width="11.941" height="59.707" transform="translate(0 35.824) rotate(-90)" fill="#d7ad7d"/><rect width="11.941" height="59.707" transform="translate(0 11.941) rotate(-90)" fill="#d7ad7d"/></g><g transform="translate(0)"><rect width="11.941" height="59.707" transform="translate(59.707 59.707) rotate(180)" fill="#d7ad7d"/><rect width="11.941" height="59.707" transform="translate(35.824 59.707) rotate(180)" fill="#d7ad7d"/><rect width="11.941" height="59.707" transform="translate(11.941 59.707) rotate(180)" fill="#d7ad7d"/></g></g><g transform="translate(768.914 969.37)" opacity="0.104"><g transform="translate(62.095)"><rect width="11.941" height="59.707" transform="translate(59.707 0) rotate(90)" fill="#d7ad7d"/><rect width="11.941" height="59.707" transform="translate(59.707 23.883) rotate(90)" fill="#d7ad7d"/><rect width="11.941" height="59.707" transform="translate(59.707 47.766) rotate(90)" fill="#d7ad7d"/></g><g transform="translate(62.096 62.095)"><rect width="11.941" height="59.707" transform="translate(59.707 59.707) rotate(180)" fill="#d7ad7d"/><rect width="11.941" height="59.707" transform="translate(35.824 59.707) rotate(180)" fill="#d7ad7d"/><rect width="11.941" height="59.707" transform="translate(11.941 59.707) rotate(180)" fill="#d7ad7d"/></g><g transform="translate(0 62.095)"><rect width="11.941" height="59.707" transform="translate(0 59.707) rotate(-90)" fill="#d7ad7d"/><rect width="11.941" height="59.707" transform="translate(0 35.824) rotate(-90)" fill="#d7ad7d"/><rect width="11.941" height="59.707" transform="translate(0 11.941) rotate(-90)" fill="#d7ad7d"/></g><g transform="translate(0)"><rect width="11.941" height="59.707" transform="translate(59.707 59.707) rotate(180)" fill="#d7ad7d"/><rect width="11.941" height="59.707" transform="translate(35.824 59.707) rotate(180)" fill="#d7ad7d"/><rect width="11.941" height="59.707" transform="translate(11.941 59.707) rotate(180)" fill="#d7ad7d"/></g></g><g transform="translate(894.37 969.37)" opacity="0.104"><g transform="translate(62.095)"><rect width="11.941" height="59.707" transform="translate(59.707 0) rotate(90)" fill="#d7ad7d"/><rect width="11.941" height="59.707" transform="translate(59.707 23.883) rotate(90)" fill="#d7ad7d"/><rect width="11.941" height="59.707" transform="translate(59.707 47.766) rotate(90)" fill="#d7ad7d"/></g><g transform="translate(62.096 62.095)"><rect width="11.941" height="59.707" transform="translate(59.707 59.707) rotate(180)" fill="#d7ad7d"/><rect width="11.941" height="59.707" transform="translate(35.824 59.707) rotate(180)" fill="#d7ad7d"/><rect width="11.941" height="59.707" transform="translate(11.941 59.707) rotate(180)" fill="#d7ad7d"/></g><g transform="translate(0 62.095)"><rect width="11.941" height="59.707" transform="translate(0 59.707) rotate(-90)" fill="#d7ad7d"/><rect width="11.941" height="59.707" transform="translate(0 35.824) rotate(-90)" fill="#d7ad7d"/><rect width="11.941" height="59.707" transform="translate(0 11.941) rotate(-90)" fill="#d7ad7d"/></g><g transform="translate(0)"><rect width="11.941" height="59.707" transform="translate(59.707 59.707) rotate(180)" fill="#d7ad7d"/><rect width="11.941" height="59.707" transform="translate(35.824 59.707) rotate(180)" fill="#d7ad7d"/><rect width="11.941" height="59.707" transform="translate(11.941 59.707) rotate(180)" fill="#d7ad7d"/></g></g><g transform="translate(1019.827 969.37)" opacity="0.104"><g transform="translate(62.095)"><rect width="11.941" height="59.707" transform="translate(59.707 0) rotate(90)" fill="#d7ad7d"/><rect width="11.941" height="59.707" transform="translate(59.707 23.883) rotate(90)" fill="#d7ad7d"/><rect width="11.941" height="59.707" transform="translate(59.707 47.766) rotate(90)" fill="#d7ad7d"/></g><g transform="translate(62.096 62.095)"><rect width="11.941" height="59.707" transform="translate(59.707 59.707) rotate(180)" fill="#d7ad7d"/><rect width="11.941" height="59.707" transform="translate(35.824 59.707) rotate(180)" fill="#d7ad7d"/><rect width="11.941" height="59.707" transform="translate(11.941 59.707) rotate(180)" fill="#d7ad7d"/></g><g transform="translate(0 62.095)"><rect width="11.941" height="59.707" transform="translate(0 59.707) rotate(-90)" fill="#d7ad7d"/><rect width="11.941" height="59.707" transform="translate(0 35.824) rotate(-90)" fill="#d7ad7d"/><rect width="11.941" height="59.707" transform="translate(0 11.941) rotate(-90)" fill="#d7ad7d"/></g><g transform="translate(0)"><rect width="11.941" height="59.707" transform="translate(59.707 59.707) rotate(180)" fill="#d7ad7d"/><rect width="11.941" height="59.707" transform="translate(35.824 59.707) rotate(180)" fill="#d7ad7d"/><rect width="11.941" height="59.707" transform="translate(11.941 59.707) rotate(180)" fill="#d7ad7d"/></g></g><g transform="translate(1145.284 969.37)" opacity="0.104"><g transform="translate(62.095)"><rect width="11.941" height="59.707" transform="translate(59.707 0) rotate(90)" fill="#d7ad7d"/><rect width="11.941" height="59.707" transform="translate(59.707 23.883) rotate(90)" fill="#d7ad7d"/><rect width="11.941" height="59.707" transform="translate(59.707 47.766) rotate(90)" fill="#d7ad7d"/></g><g transform="translate(62.096 62.095)"><rect width="11.941" height="59.707" transform="translate(59.707 59.707) rotate(180)" fill="#d7ad7d"/><rect width="11.941" height="59.707" transform="translate(35.824 59.707) rotate(180)" fill="#d7ad7d"/><rect width="11.941" height="59.707" transform="translate(11.941 59.707) rotate(180)" fill="#d7ad7d"/></g><g transform="translate(0 62.095)"><rect width="11.941" height="59.707" transform="translate(0 59.707) rotate(-90)" fill="#d7ad7d"/><rect width="11.941" height="59.707" transform="translate(0 35.824) rotate(-90)" fill="#d7ad7d"/><rect width="11.941" height="59.707" transform="translate(0 11.941) rotate(-90)" fill="#d7ad7d"/></g><g transform="translate(0)"><rect width="11.941" height="59.707" transform="translate(59.707 59.707) rotate(180)" fill="#d7ad7d"/><rect width="11.941" height="59.707" transform="translate(35.824 59.707) rotate(180)" fill="#d7ad7d"/><rect width="11.941" height="59.707" transform="translate(11.941 59.707) rotate(180)" fill="#d7ad7d"/></g></g></g></svg>